<?xml version="1.0" encoding="UTF-8" standalone="no"?>
<!-- Created with Inkscape (http://www.inkscape.org/) -->

<svg
   width="128.5201mm"
   height="33.54966mm"
   viewBox="0 0 128.5201 33.549659"
   version="1.1"
   id="svg1"
   xml:space="preserve"
   inkscape:version="1.3.2 (091e20e, 2023-11-25, custom)"
   sodipodi:docname="orion-dev-logo.svg"
   xmlns:inkscape="http://www.inkscape.org/namespaces/inkscape"
   xmlns:sodipodi="http://sodipodi.sourceforge.net/DTD/sodipodi-0.dtd"
   xmlns="http://www.w3.org/2000/svg"
   xmlns:svg="http://www.w3.org/2000/svg"><sodipodi:namedview
     id="namedview1"
     pagecolor="#505050"
     bordercolor="#eeeeee"
     borderopacity="1"
     inkscape:showpageshadow="0"
     inkscape:pageopacity="0"
     inkscape:pagecheckerboard="0"
     inkscape:deskcolor="#505050"
     inkscape:document-units="mm"
     inkscape:zoom="1.4485269"
     inkscape:cx="335.16808"
     inkscape:cy="145.32005"
     inkscape:window-width="1920"
     inkscape:window-height="1009"
     inkscape:window-x="-8"
     inkscape:window-y="-8"
     inkscape:window-maximized="1"
     inkscape:current-layer="layer1" /><defs
     id="defs1" /><g
     inkscape:label="Capa 1"
     inkscape:groupmode="layer"
     id="layer1"
     transform="translate(-22.820798,-12.997787)"><path
       style="fill:#deab18;fill-opacity:1"
       d="m 24.680823,33.851907 c -0.884564,-0.4476 -1.860025,-1.95312 -1.860025,-2.87076 0,-1.28192 4.869222,-14.11009 5.803611,-15.28985 0.49233,-0.62162 1.489998,-1.37809 2.450459,-1.85804 l 1.620033,-0.80954 8.622844,9.9e-4 c 8.034659,9.2e-4 8.67964,0.0356 9.455464,0.50869 0.971316,0.59227 1.552944,2.04844 1.307792,3.27421 -0.219748,1.09873 -4.264179,12.13138 -4.914561,13.40624 -0.721899,1.41503 -2.649669,3.01691 -4.254408,3.53518 -1.155392,0.37315 -2.619219,0.44076 -9.472138,0.43746 -5.952168,-0.003 -8.279173,-0.0918 -8.759071,-0.33458 z m 18.590635,-10.21121 c 1.134165,-3.11019 2.015266,-5.70175 1.958002,-5.75901 -0.05727,-0.0573 -3.366468,-0.0724 -7.353785,-0.0336 l -7.249669,0.0705 1.256771,0.73876 c 0.691224,0.40631 1.256771,0.79005 1.256771,0.85274 0,0.0627 -0.773906,2.24567 -1.719792,4.85106 -0.945885,2.60538 -1.719792,4.81358 -1.719792,4.9071 0,0.0935 2.58961,0.13795 5.754688,0.0987 l 5.754688,-0.0713 z m 7.33059,10.36721 c 0,-0.10037 1.696641,-4.86259 3.770313,-10.58272 l 3.770312,-10.40024 10.372447,-6.2e-4 c 10.846881,-6.4e-4 11.344184,0.0475 12.078728,1.16853 0.817258,1.24729 0.774966,2.13066 -0.24424,5.10147 -0.539184,1.57164 -1.256075,3.40798 -1.59309,4.08078 -1.210273,2.4161 -4.030342,4.2007 -6.638061,4.2007 -0.62892,0 -1.143492,0.0995 -1.143492,0.22106 0,0.12159 0.887956,1.60987 1.973236,3.3073 l 1.973236,3.08622 -3.230007,-6.6e-4 -3.230007,-6.7e-4 -2.081743,-3.30663 -2.081744,-3.30662 h -4.069819 c -2.2384,0 -4.069819,0.0482 -4.069819,0.10715 0,0.0589 0.535781,0.42114 1.190625,0.8049 0.654844,0.38376 1.190625,0.80557 1.190625,0.93735 0,0.13178 -0.368447,1.25786 -0.818772,2.50239 l -0.818773,2.26279 h -3.149977 c -1.732488,0 -3.149978,-0.0821 -3.149978,-0.18248 z m 22.943495,-13.68555 c 0.478551,-1.29727 0.828215,-2.40054 0.77703,-2.45172 -0.05118,-0.0512 -3.355414,-0.0614 -7.342731,-0.0226 l -7.249669,0.0705 1.256771,0.75274 c 0.691224,0.41401 1.256771,0.79656 1.256771,0.8501 0,0.0536 -0.238125,0.70149 -0.529167,1.43986 -0.291041,0.73838 -0.529166,1.45949 -0.529166,1.60246 0,0.16442 2.111305,0.23374 5.745033,0.18864 l 5.745034,-0.0713 z m 5.631505,13.7424 c 0,-0.30679 7.466907,-20.66615 7.647356,-20.85138 0.111028,-0.11397 1.580013,-0.1735 3.264412,-0.13229 l 3.062544,0.0749 -3.410605,9.39271 c -1.875832,5.16599 -3.601149,9.89872 -3.834038,10.51718 l -0.423435,1.12448 h -3.153117 c -1.734214,0 -3.153117,-0.0565 -3.153117,-0.12563 z m 14.075328,-0.31697 c -1.033754,-0.50946 -1.639911,-1.55769 -1.639911,-2.83591 0,-0.91121 3.935768,-12.04484 4.984738,-14.10099 0.583714,-1.14417 1.920204,-2.43994 3.287063,-3.18691 0.763044,-0.41699 1.844954,-0.47659 9.931784,-0.54709 l 9.07546,-0.0791 0.91256,0.91256 c 1.4332,1.4332 1.31616,2.26616 -1.35559,9.64784 -1.24748,3.44663 -2.55947,6.714 -2.91552,7.26082 -0.84338,1.29527 -2.50774,2.48407 -4.16806,2.97713 -2.0319,0.60341 -16.870417,0.56382 -18.112524,-0.0483 z m 17.683544,-7.23032 c 0.55087,-1.52797 1.48506,-4.11758 2.07598,-5.75469 l 1.07439,-2.97656 -7.4666,0.006 -7.4666,0.006 1.37605,0.80224 1.37606,0.80224 -1.02045,2.82995 c -0.56125,1.55647 -1.329297,3.67778 -1.706782,4.71403 -0.377485,1.03626 -0.686336,2.02084 -0.686336,2.18798 0,0.22161 1.548888,0.28457 5.721358,0.23257 l 5.72135,-0.0713 z m 8.48604,6.94532 c 0.21211,-0.55174 4.99792,-13.71159 7.17122,-19.71916 l 0.266,-0.73529 3.32263,0.0738 3.32264,0.0738 3.19724,6.65618 c 1.75848,3.6609 3.27323,6.5184 3.36611,6.35 0.0929,-0.1684 1.21367,-3.19345 2.49065,-6.72233 l 2.32179,-6.41614 h 3.23033 3.23033 l -3.85437,10.58333 -3.85437,10.58333 h -3.21409 -3.21409 l -3.2679,-6.74561 c -1.79735,-3.71008 -3.35117,-6.61089 -3.45293,-6.44623 -0.10176,0.16466 -1.23953,3.19955 -2.52838,6.74421 l -2.34335,6.44483 -3.23459,0.001 -3.2346,10e-4 z"
       id="path1" /><path
       style="fill:#000000"
       id="path2"
       d="" /><path
       style="fill:#deab18;fill-opacity:1;stroke-width:0.514689"
       d="m 105.54109,46.466607 c 0,-0.04591 0.77637,-2.221414 1.72526,-4.834328 l 1.72524,-4.750763 4.43682,0.001 c 2.62068,4.49e-4 4.64331,0.05807 4.94129,0.140867 0.74061,0.2057 1.10274,0.730856 1.02917,1.492517 -0.0326,0.337042 -0.53774,1.916794 -1.12262,3.510567 -0.91323,2.488489 -1.13914,2.975793 -1.59949,3.450149 -1.03183,1.063224 -1.05695,1.067426 -6.40347,1.070801 -2.60271,0.0012 -4.7322,-0.03458 -4.7322,-0.08061 z m 9.85389,-4.555485 c 0.49731,-1.353102 0.90419,-2.548069 0.90419,-2.655475 0,-0.164272 -0.52971,-0.195278 -3.33636,-0.195278 -1.83501,0 -3.33637,0.03057 -3.33637,0.06787 0,0.0373 0.26696,0.236458 0.59326,0.442571 l 0.59326,0.374741 -0.72842,1.97458 c -0.40064,1.086027 -0.76365,2.081833 -0.8067,2.212904 -0.0727,0.221468 0.1087,0.238311 2.56732,0.238311 h 2.6456 z m 4.21445,4.502608 c -0.49491,-0.201097 -0.76603,-0.748643 -0.69233,-1.398236 0.0845,-0.744771 1.93939,-5.870216 2.36113,-6.524318 0.41047,-0.636621 1.35474,-1.289366 2.12066,-1.46596 0.91581,-0.211165 7.88048,-0.187713 7.87763,0.02644 -0.001,0.0936 -0.14762,0.568555 -0.32527,1.055387 l -0.32301,0.885154 -4.10052,0.036 c -3.73238,0.03281 -4.61043,0.115904 -3.86221,0.36557 0.13107,0.04379 0.37946,0.188467 0.55198,0.321639 0.26884,0.207518 0.29364,0.294788 0.17359,0.610549 l -0.14007,0.368426 h 2.58402 c 1.52735,0 2.58401,0.05252 2.58401,0.128391 0,0.07058 -0.1599,0.559798 -0.35535,1.087078 l -0.35536,0.958698 -3.3555,0.03635 -3.3555,0.03635 0.58031,0.340442 c 0.51224,0.3005 0.57088,0.384383 0.49985,0.714933 l -0.0805,0.374481 h 3.33754 3.33755 l -0.38471,1.055387 -0.38473,1.055375 -3.99738,0.02644 c -2.19857,0.01452 -4.13171,-0.02809 -4.29586,-0.09478 z m 13.29731,-0.09737 c -0.004,-0.133525 -0.20766,-2.265025 -0.4539,-4.736658 -0.24624,-2.471634 -0.42369,-4.539835 -0.39432,-4.596016 0.0294,-0.05618 0.6804,-0.102095 1.44672,-0.102095 h 1.3933 l 0.3144,3.234227 c 0.17291,1.778831 0.33184,3.252676 0.35318,3.275195 0.0214,0.02254 1.25049,-1.432877 2.73144,-3.234239 l 2.69264,-3.275183 h 1.40848 c 0.77468,0 1.40851,0.02183 1.40851,0.04851 0,0.02667 -1.76399,2.186831 -3.91999,4.800288 l -3.91998,4.751731 -1.52715,0.03848 c -1.38683,0.03494 -1.52771,0.01617 -1.53333,-0.204272 z"
       id="path3" /></g></svg>
