<?xml version="1.0" encoding="UTF-8" standalone="no"?>
<!-- Created with Inkscape (http://www.inkscape.org/) -->

<svg
   width="128.5201mm"
   height="21.230619mm"
   viewBox="0 0 128.5201 21.230619"
   version="1.1"
   id="svg1"
   xml:space="preserve"
   inkscape:version="1.3.2 (091e20e, 2023-11-25, custom)"
   sodipodi:docname="orion-logo.svg"
   xmlns:inkscape="http://www.inkscape.org/namespaces/inkscape"
   xmlns:sodipodi="http://sodipodi.sourceforge.net/DTD/sodipodi-0.dtd"
   xmlns="http://www.w3.org/2000/svg"
   xmlns:svg="http://www.w3.org/2000/svg"><sodipodi:namedview
     id="namedview1"
     pagecolor="#505050"
     bordercolor="#eeeeee"
     borderopacity="1"
     inkscape:showpageshadow="0"
     inkscape:pageopacity="0"
     inkscape:pagecheckerboard="0"
     inkscape:deskcolor="#505050"
     inkscape:document-units="mm"
     inkscape:zoom="0.72426347"
     inkscape:cx="311.35079"
     inkscape:cy="290.64009"
     inkscape:window-width="1920"
     inkscape:window-height="1009"
     inkscape:window-x="1912"
     inkscape:window-y="-8"
     inkscape:window-maximized="1"
     inkscape:current-layer="layer1" /><defs
     id="defs1" /><g
     inkscape:label="Capa 1"
     inkscape:groupmode="layer"
     id="layer1"
     transform="translate(-22.820798,-12.997787)"><path
       style="fill:#deab18;fill-opacity:1"
       d="m 24.680823,33.851907 c -0.884564,-0.4476 -1.860025,-1.95312 -1.860025,-2.87076 0,-1.28192 4.869222,-14.11009 5.803611,-15.28985 0.49233,-0.62162 1.489998,-1.37809 2.450459,-1.85804 l 1.620033,-0.80954 8.622844,9.9e-4 c 8.034659,9.2e-4 8.67964,0.0356 9.455464,0.50869 0.971316,0.59227 1.552944,2.04844 1.307792,3.27421 -0.219748,1.09873 -4.264179,12.13138 -4.914561,13.40624 -0.721899,1.41503 -2.649669,3.01691 -4.254408,3.53518 -1.155392,0.37315 -2.619219,0.44076 -9.472138,0.43746 -5.952168,-0.003 -8.279173,-0.0918 -8.759071,-0.33458 z m 18.590635,-10.21121 c 1.134165,-3.11019 2.015266,-5.70175 1.958002,-5.75901 -0.05727,-0.0573 -3.366468,-0.0724 -7.353785,-0.0336 l -7.249669,0.0705 1.256771,0.73876 c 0.691224,0.40631 1.256771,0.79005 1.256771,0.85274 0,0.0627 -0.773906,2.24567 -1.719792,4.85106 -0.945885,2.60538 -1.719792,4.81358 -1.719792,4.9071 0,0.0935 2.58961,0.13795 5.754688,0.0987 l 5.754688,-0.0713 z m 7.33059,10.36721 c 0,-0.10037 1.696641,-4.86259 3.770313,-10.58272 l 3.770312,-10.40024 10.372447,-6.2e-4 c 10.846881,-6.4e-4 11.344184,0.0475 12.078728,1.16853 0.817258,1.24729 0.774966,2.13066 -0.24424,5.10147 -0.539184,1.57164 -1.256075,3.40798 -1.59309,4.08078 -1.210273,2.4161 -4.030342,4.2007 -6.638061,4.2007 -0.62892,0 -1.143492,0.0995 -1.143492,0.22106 0,0.12159 0.887956,1.60987 1.973236,3.3073 l 1.973236,3.08622 -3.230007,-6.6e-4 -3.230007,-6.7e-4 -2.081743,-3.30663 -2.081744,-3.30662 h -4.069819 c -2.2384,0 -4.069819,0.0482 -4.069819,0.10715 0,0.0589 0.535781,0.42114 1.190625,0.8049 0.654844,0.38376 1.190625,0.80557 1.190625,0.93735 0,0.13178 -0.368447,1.25786 -0.818772,2.50239 l -0.818773,2.26279 h -3.149977 c -1.732488,0 -3.149978,-0.0821 -3.149978,-0.18248 z m 22.943495,-13.68555 c 0.478551,-1.29727 0.828215,-2.40054 0.77703,-2.45172 -0.05118,-0.0512 -3.355414,-0.0614 -7.342731,-0.0226 l -7.249669,0.0705 1.256771,0.75274 c 0.691224,0.41401 1.256771,0.79656 1.256771,0.8501 0,0.0536 -0.238125,0.70149 -0.529167,1.43986 -0.291041,0.73838 -0.529166,1.45949 -0.529166,1.60246 0,0.16442 2.111305,0.23374 5.745033,0.18864 l 5.745034,-0.0713 z m 5.631505,13.7424 c 0,-0.30679 7.466907,-20.66615 7.647356,-20.85138 0.111028,-0.11397 1.580013,-0.1735 3.264412,-0.13229 l 3.062544,0.0749 -3.410605,9.39271 c -1.875832,5.16599 -3.601149,9.89872 -3.834038,10.51718 l -0.423435,1.12448 h -3.153117 c -1.734214,0 -3.153117,-0.0565 -3.153117,-0.12563 z m 14.075328,-0.31697 c -1.033754,-0.50946 -1.639911,-1.55769 -1.639911,-2.83591 0,-0.91121 3.935768,-12.04484 4.984738,-14.10099 0.583714,-1.14417 1.920204,-2.43994 3.287063,-3.18691 0.763044,-0.41699 1.844954,-0.47659 9.931784,-0.54709 l 9.07546,-0.0791 0.91256,0.91256 c 1.4332,1.4332 1.31616,2.26616 -1.35559,9.64784 -1.24748,3.44663 -2.55947,6.714 -2.91552,7.26082 -0.84338,1.29527 -2.50774,2.48407 -4.16806,2.97713 -2.0319,0.60341 -16.870417,0.56382 -18.112524,-0.0483 z m 17.683544,-7.23032 c 0.55087,-1.52797 1.48506,-4.11758 2.07598,-5.75469 l 1.07439,-2.97656 -7.4666,0.006 -7.4666,0.006 1.37605,0.80224 1.37606,0.80224 -1.02045,2.82995 c -0.56125,1.55647 -1.329297,3.67778 -1.706782,4.71403 -0.377485,1.03626 -0.686336,2.02084 -0.686336,2.18798 0,0.22161 1.548888,0.28457 5.721358,0.23257 l 5.72135,-0.0713 z m 8.48604,6.94532 c 0.21211,-0.55174 4.99792,-13.71159 7.17122,-19.71916 l 0.266,-0.73529 3.32263,0.0738 3.32264,0.0738 3.19724,6.65618 c 1.75848,3.6609 3.27323,6.5184 3.36611,6.35 0.0929,-0.1684 1.21367,-3.19345 2.49065,-6.72233 l 2.32179,-6.41614 h 3.23033 3.23033 l -3.85437,10.58333 -3.85437,10.58333 h -3.21409 -3.21409 l -3.2679,-6.74561 c -1.79735,-3.71008 -3.35117,-6.61089 -3.45293,-6.44623 -0.10176,0.16466 -1.23953,3.19955 -2.52838,6.74421 l -2.34335,6.44483 -3.23459,0.001 -3.2346,10e-4 z"
       id="path1" /></g></svg>
