<?xml version="1.0" encoding="UTF-8" standalone="no"?>
<!-- Created with Inkscape (http://www.inkscape.org/) -->

<svg
   width="47.646mm"
   height="47.646mm"
   viewBox="0 0 47.646002 47.645999"
   version="1.1"
   id="svg1"
   xml:space="preserve"
   inkscape:version="1.3.2 (091e20e, 2023-11-25, custom)"
   sodipodi:docname="orion-icon.svg"
   xmlns:inkscape="http://www.inkscape.org/namespaces/inkscape"
   xmlns:sodipodi="http://sodipodi.sourceforge.net/DTD/sodipodi-0.dtd"
   xmlns="http://www.w3.org/2000/svg"
   xmlns:svg="http://www.w3.org/2000/svg"><sodipodi:namedview
     id="namedview1"
     pagecolor="#505050"
     bordercolor="#eeeeee"
     borderopacity="1"
     inkscape:showpageshadow="0"
     inkscape:pageopacity="0"
     inkscape:pagecheckerboard="0"
     inkscape:deskcolor="#505050"
     inkscape:document-units="mm"
     inkscape:zoom="1.7375316"
     inkscape:cx="99.27877"
     inkscape:cy="140.71687"
     inkscape:window-width="1920"
     inkscape:window-height="1009"
     inkscape:window-x="1912"
     inkscape:window-y="-8"
     inkscape:window-maximized="1"
     inkscape:current-layer="layer1" /><defs
     id="defs1" /><g
     inkscape:label="Capa 1"
     inkscape:groupmode="layer"
     id="layer1"
     transform="translate(-8.7674658,-38.456518)"><path
       d="M 50.3992,62.112721 C 53.87835,52.571948 56.581204,44.622114 56.405541,44.446463 56.229861,44.27069 46.07861,44.22437 33.84717,44.343388 l -22.23899,0.216264 3.855254,2.26621 c 2.120389,1.246393 3.855254,2.423548 3.855254,2.615855 0,0.192338 -2.374024,6.888786 -5.275612,14.881043 -2.901583,7.992228 -5.2756102,14.766073 -5.2756102,15.052954 0,0.286819 7.9438522,0.423173 17.6530062,0.302771 l 17.653003,-0.21872 z"
       style="fill:#15213a;fill-opacity:1;stroke-width:3.06759"
       id="path1-6" /><path
       d="m 19.922794,72.176575 c -0.884564,-0.4476 -1.860025,-1.95312 -1.860025,-2.87076 0,-1.28192 4.869222,-14.110089 5.803611,-15.289849 0.49233,-0.62162 1.489998,-1.37809 2.450459,-1.85804 l 1.620033,-0.80954 8.622845,9.9e-4 c 8.034659,9.2e-4 8.67964,0.0356 9.455464,0.50869 0.971316,0.59227 1.552944,2.04844 1.307792,3.27421 -0.219748,1.09873 -4.264179,12.131379 -4.914561,13.406239 -0.721899,1.41503 -2.649669,3.01691 -4.254408,3.53518 -1.155392,0.37315 -2.619219,0.44076 -9.472139,0.43746 -5.952168,-0.003 -8.279173,-0.0918 -8.759071,-0.33458 z M 38.51343,61.965365 c 1.134165,-3.11019 2.015266,-5.701749 1.958002,-5.759009 -0.05727,-0.0573 -3.366468,-0.0724 -7.353785,-0.0336 l -7.24967,0.0705 1.256771,0.73876 c 0.691224,0.40631 1.256771,0.79005 1.256771,0.85274 0,0.0627 -0.773906,2.245669 -1.719792,4.851059 -0.945885,2.60538 -1.719792,4.81358 -1.719792,4.9071 0,0.0935 2.58961,0.13795 5.754689,0.0987 l 5.754688,-0.0713 z"
       style="fill:#deab18;fill-opacity:1"
       id="path1-0" /></g></svg>
